<svg xmlns="http://www.w3.org/2000/svg" xmlns:xlink="http://www.w3.org/1999/xlink" viewBox="0 0 331 331"><defs><style>.cls-1{fill:none;}.cls-2{fill:#fff6e9;}.cls-3{fill:#c1272d;}.cls-3,.cls-5,.cls-8{stroke:#000;stroke-miterlimit:10;}.cls-4{clip-path:url(#clip-path);}.cls-5{fill:#333;}.cls-6,.cls-8{fill:#fff;}.cls-7{fill:#ff0;}</style><clipPath id="clip-path"><path class="cls-1" d="M51.5,134.5l115,43,114-43s47,173-114,172C52.72,305.79,41.14,224.39,44.94,173.84A210.2,210.2,0,0,1,51.5,134.5Z"/></clipPath></defs><g id="Layer_2" data-name="Layer 2"><g id="Layer_1-2" data-name="Layer 1"><circle class="cls-2" cx="165.5" cy="165.5" r="165"/><path d="M165.5,1A164.5,164.5,0,0,1,281.82,281.82,164.5,164.5,0,0,1,49.18,49.18,163.42,163.42,0,0,1,165.5,1m0-1A165.5,165.5,0,1,0,331,165.5,165.5,165.5,0,0,0,165.5,0Z"/><path class="cls-3" d="M51.18,134.33l115,43,114-43s47,173-114,172C52.4,305.62,40.82,224.22,44.62,173.67A210.2,210.2,0,0,1,51.18,134.33Z"/><g class="cls-4"><rect class="cls-5" x="255.5" y="222.5" width="24" height="41" transform="translate(-93.48 260.32) rotate(-45)"/><rect class="cls-5" x="47.5" y="205.5" width="24" height="41" transform="translate(234.06 70.61) rotate(63.07)"/><rect class="cls-5" x="111" y="265" width="24" height="41" transform="translate(123.31 -25.37) rotate(23.36)"/><rect class="cls-5" x="154.5" y="272.5" width="24" height="41"/><rect class="cls-5" x="214" y="259" width="24" height="41" transform="translate(-109.47 150.45) rotate(-30)"/><rect class="cls-5" x="123.5" y="153.5" width="31" height="50"/><rect class="cls-5" x="181.72" y="148.5" width="30.75" height="46.46" transform="matrix(0.98, -0.19, 0.19, 0.98, -29.48, 41.34)"/></g><polygon class="cls-6" points="81.45 103.9 82.49 62.3 119.04 42.4 154.55 64.1 153.51 105.7 116.96 125.6 81.45 103.9"/><path d="M119,43l35,21.4-1,41L117,125l-35-21.4,1-41L119,43m0-1.16L82,62l-1,42.18,36,22L154,106l1.05-42.18-36-22Z"/><polygon class="cls-6" points="181.45 103.4 182.49 61.8 219.04 41.9 254.55 63.6 253.51 105.2 216.96 125.1 181.45 103.4"/><path d="M219,42.48l35,21.4-1,41-36,19.62-35-21.4,1-41,36-19.62m0-1.16L182,61.5,181,103.68l36,22L254,105.5l1.05-42.18-36-22Z"/><polygon class="cls-7" points="112.75 91.56 101.72 86.48 112.47 80.82 113.9 68.76 122.6 77.23 134.51 74.87 129.14 85.76 135.07 96.36 123.05 94.62 114.8 103.53 112.75 91.56"/><path d="M114.28,69.83l7.78,7.58.38.37.51-.11,10.66-2.11-4.8,9.75-.23.47.25.46,5.31,9.48-10.76-1.56-.52-.07-.35.38-7.39,8-1.84-10.71-.09-.52-.47-.22-9.87-4.55,9.62-5.07.46-.24.06-.52,1.29-10.79m-.76-2.13L112,80.5l-11.41,6,11.71,5.4,2.18,12.71,8.76-9.47L136,97l-6.3-11.25,5.71-11.57-12.65,2.51-9.24-9Z"/><polygon class="cls-7" points="212.45 91.91 201.42 86.82 212.17 81.16 213.6 69.11 222.3 77.58 234.22 75.21 228.85 86.11 234.77 96.7 222.76 94.96 214.51 103.88 212.45 91.91"/><path d="M214,70.17l7.79,7.58.37.37.52-.1,10.66-2.12-4.81,9.75-.23.47.26.46,5.3,9.48-10.75-1.55-.52-.08-.36.39-7.38,8L213,92.08l-.09-.51-.48-.23-9.87-4.55,9.62-5.06.47-.25.06-.52L214,70.17M213.23,68l-1.53,12.8-11.4,6,11.7,5.4L214.19,105l8.75-9.46,12.76,1.84-6.29-11.25,5.7-11.56L222.46,77l-9.23-9Z"/><polygon class="cls-8" points="38.5 119.5 165.5 148.5 301.5 119.5 296.5 214.5 301.5 281.5 165.5 318.5 38.5 280.5 44.03 206.66 38.5 119.5"/></g></g></svg>